<?xml version="1.0" encoding="UTF-8" standalone="no"?>
<!-- Created with Inkscape (http://www.inkscape.org/) -->

<svg
   xmlns:dc="http://purl.org/dc/elements/1.1/"
   xmlns:cc="http://creativecommons.org/ns#"
   xmlns:rdf="http://www.w3.org/1999/02/22-rdf-syntax-ns#"
   xmlns:svg="http://www.w3.org/2000/svg"
   xmlns="http://www.w3.org/2000/svg"
   xmlns:sodipodi="http://sodipodi.sourceforge.net/DTD/sodipodi-0.dtd"
   xmlns:inkscape="http://www.inkscape.org/namespaces/inkscape"
   width="15.168815"
   height="12.975033"
   id="svg4474"
   version="1.1"
   inkscape:version="0.47 r22583"
   sodipodi:docname="New document 3">
  <defs
     id="defs4476">
    <inkscape:perspective
       sodipodi:type="inkscape:persp3d"
       inkscape:vp_x="0 : 526.18109 : 1"
       inkscape:vp_y="0 : 1000 : 0"
       inkscape:vp_z="744.09448 : 526.18109 : 1"
       inkscape:persp3d-origin="372.04724 : 350.78739 : 1"
       id="perspective4482" />
    <inkscape:perspective
       id="perspective4440"
       inkscape:persp3d-origin="0.5 : 0.33333333 : 1"
       inkscape:vp_z="1 : 0.5 : 1"
       inkscape:vp_y="0 : 1000 : 0"
       inkscape:vp_x="0 : 0.5 : 1"
       sodipodi:type="inkscape:persp3d" />
    <inkscape:perspective
       id="perspective4596"
       inkscape:persp3d-origin="0.5 : 0.33333333 : 1"
       inkscape:vp_z="1 : 0.5 : 1"
       inkscape:vp_y="0 : 1000 : 0"
       inkscape:vp_x="0 : 0.5 : 1"
       sodipodi:type="inkscape:persp3d" />
  </defs>
  <sodipodi:namedview
     id="base"
     pagecolor="#ffffff"
     bordercolor="#666666"
     borderopacity="1.0"
     inkscape:pageopacity="0.0"
     inkscape:pageshadow="2"
     inkscape:zoom="22.4"
     inkscape:cx="8.0129589"
     inkscape:cy="5.5958111"
     inkscape:document-units="px"
     inkscape:current-layer="layer1"
     showgrid="false"
     inkscape:window-width="1024"
     inkscape:window-height="575"
     inkscape:window-x="-5"
     inkscape:window-y="3"
     inkscape:window-maximized="1" />
  <metadata
     id="metadata4479">
    <rdf:RDF>
      <cc:Work
         rdf:about="">
        <dc:format>image/svg+xml</dc:format>
        <dc:type
           rdf:resource="http://purl.org/dc/dcmitype/StillImage" />
        <dc:title></dc:title>
      </cc:Work>
    </rdf:RDF>
  </metadata>
  <g
     inkscape:label="Layer 1"
     inkscape:groupmode="layer"
     id="layer1"
     transform="translate(67.809854,-73.15625)">
    <path
       style="fill:#ffffff;fill-opacity:1;stroke:#000000;stroke-width:0.5;stroke-miterlimit:4;stroke-dasharray:none"
       d="m -65.647321,73.40625 c -0.223932,0 -0.454146,0.07914 -0.625,0.25 -0.213569,0.213568 -0.272142,0.505482 -0.21875,0.78125 -0.279846,-0.05911 -0.595173,0.03267 -0.8125,0.25 -0.34171,0.341709 -0.34171,0.877041 0,1.21875 0.341709,0.34171 0.908291,0.34171 1.25,0 0.0679,-0.0679 0.115334,-0.137411 0.15625,-0.21875 l 3.5625,3.5625 0.625,-0.625 -3.5625,-3.5625 c 0.08134,-0.04092 0.150846,-0.08835 0.21875,-0.15625 0.34171,-0.341709 0.34171,-0.908291 0,-1.25 -0.170855,-0.170855 -0.369818,-0.25 -0.59375,-0.25 z m 10.875,0 c -0.223932,0 -0.454146,0.07914 -0.625,0.25 -0.341709,0.341709 -0.341709,0.908291 0,1.25 0.0679,0.0679 0.137411,0.115334 0.21875,0.15625 l -3.5625,3.5625 0.625,0.625 3.5625,-3.5625 c 0.04092,0.08134 0.08835,0.150846 0.15625,0.21875 0.341709,0.34171 0.908291,0.34171 1.25,0 0.341709,-0.341709 0.341709,-0.877041 0,-1.21875 -0.213568,-0.213569 -0.505482,-0.303392 -0.78125,-0.25 0.05339,-0.275768 -0.03643,-0.567682 -0.25,-0.78125 -0.170854,-0.170855 -0.369818,-0.25 -0.59375,-0.25 z m -7.5625,6.625 -3.5625,3.5625 c -0.04092,-0.08134 -0.08835,-0.150846 -0.15625,-0.21875 -0.341709,-0.34171 -0.908291,-0.34171 -1.25,0 -0.34171,0.341709 -0.34171,0.877041 0,1.21875 0.217327,0.217328 0.532654,0.277863 0.8125,0.21875 -0.05911,0.279846 0.0014,0.595173 0.21875,0.8125 0.341709,0.34171 0.877041,0.34171 1.21875,0 0.34171,-0.341709 0.34171,-0.908291 0,-1.25 -0.0679,-0.0679 -0.137411,-0.115334 -0.21875,-0.15625 l 3.5625,-3.5625 -0.625,-0.625 z m 4.21875,0 -0.625,0.625 3.5625,3.5625 c -0.08134,0.04092 -0.150846,0.08835 -0.21875,0.15625 -0.341709,0.341709 -0.341709,0.908291 0,1.25 0.341709,0.34171 0.877041,0.34171 1.21875,0 0.217327,-0.217327 0.309113,-0.532654 0.25,-0.8125 0.275768,0.05339 0.567682,-0.0052 0.78125,-0.21875 0.341709,-0.341709 0.341709,-0.877041 0,-1.21875 -0.341709,-0.34171 -0.908291,-0.34171 -1.25,0 -0.0679,0.0679 -0.115334,0.137411 -0.15625,0.21875 l -3.5625,-3.5625 z"
       id="rect4357" />
    <path
       style="fill:#ffffff;fill-opacity:1;stroke:#000000;stroke-width:0.5;stroke-miterlimit:4;stroke-dasharray:none"
       d="m -59.90625,74.8125 c -2.56282,0 -4.65625,1.684421 -4.65625,3.78125 0,1.426457 0.984574,2.66369 2.40625,3.3125 l 0,1.8125 4.5,0 0,-1.8125 c 1.421672,-0.64881 2.375,-1.886043 2.375,-3.3125 0,-2.096829 -2.06219,-3.78125 -4.625,-3.78125 z"
       id="rect4317" />
    <g
       style="fill:#ececec"
       transform="matrix(0.70710678,0.70710678,0.70710678,-0.70710678,-604.06774,179.52082)"
       id="g4369">
      <g
         style="fill:#ececec"
         id="g4371" />
    </g>
    <g
       style="fill:#ececec"
       id="g4359"
       transform="matrix(-0.70710678,0.70710678,-0.70710678,-0.70710678,484.06773,179.52082)">
      <g
         style="fill:#ececec"
         id="g4361" />
    </g>
    <g
       style="fill:#ececec"
       id="g4343"
       transform="matrix(0.70710678,-0.70710678,0.70710678,0.70710678,-604.06774,-20.51074)">
      <g
         style="fill:#ececec"
         id="g4339" />
    </g>
    <path
       sodipodi:type="arc"
       style="fill:#000000;fill-opacity:1;stroke:none"
       id="path4319"
       sodipodi:cx="319.34711"
       sodipodi:cy="449.11172"
       sodipodi:rx="0.79549515"
       sodipodi:ry="0.79549515"
       d="m 320.1426,449.11172 c 0,0.43934 -0.35615,0.7955 -0.79549,0.7955 -0.43934,0 -0.7955,-0.35616 -0.7955,-0.7955 0,-0.43933 0.35616,-0.79549 0.7955,-0.79549 0.43934,0 0.79549,0.35616 0.79549,0.79549 z"
       transform="matrix(1.3888889,0,0,1.3888889,-505.21335,-544.06407)" />
    <path
       sodipodi:type="star"
       style="fill:#000000;fill-opacity:1;stroke:none"
       id="path4321"
       sodipodi:sides="3"
       sodipodi:cx="319.43549"
       sodipodi:cy="452.02853"
       sodipodi:r1="0.98821175"
       sodipodi:r2="0.49410588"
       sodipodi:arg1="-0.52359878"
       sodipodi:arg2="0.52359878"
       inkscape:flatsided="false"
       inkscape:rounded="0"
       inkscape:randomized="0"
       d="m 320.2913,451.53443 -0.42791,0.74116 -0.4279,0.74116 -0.42791,-0.74116 -0.42791,-0.74116 0.85582,0 0.85581,0 z"
       transform="matrix(-1,0,0,-1,259.48335,533.86003)" />
    <path
       transform="matrix(1.3888889,0,0,1.3888889,-501.67782,-543.97568)"
       d="m 320.1426,449.11172 c 0,0.43934 -0.35615,0.7955 -0.79549,0.7955 -0.43934,0 -0.7955,-0.35616 -0.7955,-0.7955 0,-0.43933 0.35616,-0.79549 0.7955,-0.79549 0.43934,0 0.79549,0.35616 0.79549,0.79549 z"
       sodipodi:ry="0.79549515"
       sodipodi:rx="0.79549515"
       sodipodi:cy="449.11172"
       sodipodi:cx="319.34711"
       id="path4323"
       style="fill:#000000;fill-opacity:1;stroke:none"
       sodipodi:type="arc" />
    <path
       style="fill:none;stroke:#000000;stroke-width:0.21051928;stroke-linecap:butt;stroke-linejoin:miter;stroke-miterlimit:4;stroke-opacity:1;stroke-dasharray:none"
       d="m -61.18957,83.02755 0,0.68551"
       id="path4325" />
    <path
       id="path4327"
       d="m -60.38671,83.02755 0,0.68551"
       style="fill:none;stroke:#000000;stroke-width:0.21051928;stroke-linecap:butt;stroke-linejoin:miter;stroke-miterlimit:4;stroke-opacity:1;stroke-dasharray:none" />
    <path
       style="fill:none;stroke:#000000;stroke-width:0.21051928;stroke-linecap:butt;stroke-linejoin:miter;stroke-miterlimit:4;stroke-opacity:1;stroke-dasharray:none"
       d="m -59.58385,83.02755 0,0.68551"
       id="path4329" />
    <path
       id="path4331"
       d="m -58.78099,83.02755 0,0.68551"
       style="fill:none;stroke:#000000;stroke-width:0.21051928;stroke-linecap:butt;stroke-linejoin:miter;stroke-miterlimit:4;stroke-opacity:1;stroke-dasharray:none" />
  </g>
</svg>
